HIERARCHY
ROOT Hips
{
	OFFSET 0.000000 0.000000 0.000000
	CHANNELS 6 Xposition Yposition Zposition Zrotation Yrotation Xrotation 
	JOINT LHipJoint
	{
		OFFSET 0.000000 0.000000 0.000000
		CHANNELS 3 Zrotation Yrotation Xrotation
		JOINT LeftUpLeg
		{
			OFFSET 1.363060 -1.794630 0.839290
			CHANNELS 3 Zrotation Yrotation Xrotation
			JOINT LeftLeg
			{
				OFFSET 2.448110 -6.726130 0.000000
				CHANNELS 3 Zrotation Yrotation Xrotation
				JOINT LeftFoot
				{
					OFFSET 2.562200 -7.039590 0.000000
					CHANNELS 3 Zrotation Yrotation Xrotation
					JOINT LeftToeBase
					{
						OFFSET 0.157640 -0.433110 2.322550
						CHANNELS 3 Zrotation Yrotation Xrotation
						End Site
						{
							OFFSET 0.000000 0.000000 0.000000
						}
					}
				}
			}
		}
	}
	JOINT RHipJoint
	{
		OFFSET 0.000000 0.000000 0.000000
		CHANNELS 3 Zrotation Yrotation Xrotation
		JOINT RightUpLeg
		{
			OFFSET -1.305520 -1.794630 0.839290
			CHANNELS 3 Zrotation Yrotation Xrotation
			JOINT RightLeg
			{
				OFFSET -2.542530 -6.985550 0.000000
				CHANNELS 3 Zrotation Yrotation Xrotation
				JOINT RightFoot
				{
					OFFSET -2.568260 -7.056230 0.000000
					CHANNELS 3 Zrotation Yrotation Xrotation
					JOINT RightToeBase
					{
						OFFSET -0.164730 -0.452590 2.363150
						CHANNELS 3 Zrotation Yrotation Xrotation
						End Site
						{
							OFFSET 0.000000 0.000000 0.000000
						}
					}
				}
			}
		}
	}
	JOINT LowerBack
	{
		OFFSET 0.000000 0.000000 0.000000
		CHANNELS 3 Zrotation Yrotation Xrotation
		JOINT Spine
		{
			OFFSET 0.028270 2.035590 -0.193380
			CHANNELS 3 Zrotation Yrotation Xrotation
			JOINT Spine1
			{
				OFFSET 0.056720 2.048850 -0.042750
				CHANNELS 3 Zrotation Yrotation Xrotation
				JOINT Neck
				{
					OFFSET 0.000000 0.000000 0.000000
					CHANNELS 3 Zrotation Yrotation Xrotation
					JOINT Neck1
					{
						OFFSET -0.054170 1.746240 0.172020
						CHANNELS 3 Zrotation Yrotation Xrotation
						JOINT Head
						{
							OFFSET 0.104070 1.761360 -0.123970
							CHANNELS 3 Zrotation Yrotation Xrotation
							End Site
							{
								OFFSET 0.000000 0.000000 0.000000
							}
						}
					}
				}
				JOINT LeftShoulder
				{
					OFFSET 0.000000 0.000000 0.000000
					CHANNELS 3 Zrotation Yrotation Xrotation
					JOINT LeftArm
					{
						OFFSET 3.362410 1.200890 -0.311210
						CHANNELS 3 Zrotation Yrotation Xrotation
						JOINT LeftForeArm
						{
							OFFSET 4.983000 -0.000000 -0.000000
							CHANNELS 3 Zrotation Yrotation Xrotation
							JOINT LeftHand
							{
								OFFSET 3.483560 -0.000000 -0.000000
								CHANNELS 3 Zrotation Yrotation Xrotation
								JOINT LeftFingerBase
								{
									OFFSET 0.000000 0.000000 0.000000
									CHANNELS 3 Zrotation Yrotation Xrotation
									JOINT LeftHandIndex1
									{
										OFFSET 0.715260 -0.000000 -0.000000
										CHANNELS 3 Zrotation Yrotation Xrotation
										End Site
										{
											OFFSET 0.000000 0.000000 0.000000
										}
									}
								}
								JOINT LThumb
								{
									OFFSET 0.000000 0.000000 0.000000
									CHANNELS 3 Zrotation Yrotation Xrotation
									End Site
									{
										OFFSET 0.000000 0.000000 0.000000
									}
								}
							}
						}
					}
				}
				JOINT RightShoulder
				{
					OFFSET 0.000000 0.000000 0.000000
					CHANNELS 3 Zrotation Yrotation Xrotation
					JOINT RightArm
					{
						OFFSET -3.136600 1.374050 -0.404650
						CHANNELS 3 Zrotation Yrotation Xrotation
						JOINT RightForeArm
						{
							OFFSET -5.241900 -0.000000 -0.000000
							CHANNELS 3 Zrotation Yrotation Xrotation
							JOINT RightHand
							{
								OFFSET -3.444170 -0.000000 -0.000000
								CHANNELS 3 Zrotation Yrotation Xrotation
								JOINT RightFingerBase
								{
									OFFSET 0.000000 0.000000 0.000000
									CHANNELS 3 Zrotation Yrotation Xrotation
									JOINT RightHandIndex1
									{
										OFFSET -0.622530 -0.000000 -0.000000
										CHANNELS 3 Zrotation Yrotation Xrotation
										End Site
										{
											OFFSET 0.000000 0.000000 0.000000
										}
									}
								}
								JOINT RThumb
								{
									OFFSET 0.000000 0.000000 0.000000
									CHANNELS 3 Zrotation Yrotation Xrotation
									End Site
									{
										OFFSET 0.000000 0.000000 0.000000
									}
								}
							}
						}
					}
				}
			}
		}
	}
}
MOTION
Frames: 12
Frame Time: 0.033333
-0.678165 18.042872 -0.213863 5.398556 11.902217 16.717744 -9.941415 9.989335 -2.241513 -8.274932 4.056332 -9.636062 -14.869929 7.013512 -4.857514 0.522757 10.786027 3.495675 0.000000 0.000000 0.000000 29.668308 21.749772 7.559792 -47.371686 -6.732620 -5.322563 34.551275 -4.025906 -2.494553 0.093428 -3.387411 -0.960996 0.000000 0.000000 0.000000 -16.578164 -12.144066 14.254827 2.332481 -9.343810 -8.398662 24.398668 -11.534617 -7.888806 15.731651 -2.022897 14.377485 -17.503390 -0.852744 0.572299 0.000000 0.000000 0.000000 13.899246 -8.651736 -19.110087 10.713607 -18.510398 -0.335691 13.308882 -17.016662 0.187618 1.015169 -6.512560 0.093371 1.008623 -6.529103 0.000000 0.000000 0.000000 0.000000 0.000000 0.000000 0.000000 -6.706996 -4.695520 -6.335308 71.380242 6.921557 42.205220 18.028735 74.700065 3.728059 6.360936 7.533193 1.916794 6.882802 7.504248 0.000000 0.000000 0.000000 0.000000 0.000000 0.000000 0.000000 
-0.673969 18.050924 -0.201017 5.206246 11.685905 16.568911 -10.170783 9.985049 -2.005163 -7.740660 4.132359 -9.766554 -15.053276 7.052373 -4.980694 0.548392 10.901776 3.492618 0.000000 0.000000 0.000000 29.299234 21.385611 7.235587 -46.438040 -6.424662 -5.935239 33.978531 -4.195034 -1.730497 0.135095 -2.889678 -1.607074 0.000000 0.000000 0.000000 -16.143789 -12.092367 14.260534 2.767383 -9.175087 -8.322174 23.232220 -11.133199 -8.374390 15.570691 -1.896129 15.066031 -17.761266 -0.898462 0.200936 0.000000 0.000000 0.000000 12.755076 -7.922006 -19.598433 9.833323 -19.955086 0.609813 14.076009 -19.496250 0.215503 0.728210 -7.291794 0.106816 0.724390 -7.306658 0.000000 0.000000 0.000000 0.000000 0.000000 0.000000 0.000000 -6.469009 -4.808056 -5.968474 72.272123 5.289509 41.740340 18.408786 75.324482 3.852033 6.678126 6.895167 1.977855 7.204876 6.875638 0.000000 0.000000 0.000000 0.000000 0.000000 0.000000 0.000000 
-0.682813 18.058883 -0.188007 5.000602 11.689889 16.493867 -10.272153 9.876745 -1.839792 -7.210689 4.193415 -9.811083 -15.318169 7.001669 -5.207139 0.569994 11.055689 3.668017 0.000000 0.000000 0.000000 29.117051 21.353020 6.909196 -45.704986 -6.270543 -6.131239 33.489060 -4.393573 -1.187504 0.188145 -2.576441 -2.164173 0.000000 0.000000 0.000000 -16.009931 -12.169413 14.367977 3.417829 -9.104042 -7.956515 22.121261 -10.688050 -9.025532 15.383202 -1.802098 15.643676 -17.992290 -0.961779 -0.270754 0.000000 0.000000 0.000000 11.581973 -6.949942 -20.191362 8.846670 -21.502414 1.601814 15.294690 -22.395151 0.244019 0.779262 -8.077941 0.120654 0.778819 -8.091269 0.000000 0.000000 0.000000 0.000000 0.000000 0.000000 0.000000 -6.080756 -4.817286 -5.443897 72.914872 3.915201 41.226200 18.873979 75.927112 3.885853 6.829015 6.114727 1.993860 7.350593 6.096578 0.000000 0.000000 0.000000 0.000000 0.000000 0.000000 0.000000 
-0.696822 18.060847 -0.172980 4.791038 11.984311 16.462792 -10.228231 9.689258 -1.749356 -6.768923 4.209810 -9.759752 -15.570323 6.873240 -5.438750 0.584858 11.131233 3.834007 0.000000 0.000000 0.000000 29.008280 21.481971 6.578208 -45.158854 -6.302351 -6.077642 33.265478 -4.682507 -0.766732 0.257575 -2.410019 -2.687613 0.000000 0.000000 0.000000 -16.002422 -12.330078 14.503002 4.101629 -9.152492 -7.294390 21.084201 -10.206437 -9.926171 15.050133 -1.719177 16.035054 -17.975336 -0.983388 -0.406055 0.000000 0.000000 0.000000 10.636591 -5.818891 -20.950572 7.920063 -23.164666 2.668226 16.805290 -25.408737 0.281218 1.487490 -8.311847 0.139419 1.487644 -8.323433 0.000000 0.000000 0.000000 0.000000 0.000000 0.000000 0.000000 -5.663439 -4.815256 -4.869639 73.387816 2.594343 40.697698 19.058822 76.659571 3.899287 6.764165 5.464219 2.001842 7.289088 5.440364 0.000000 0.000000 0.000000 0.000000 0.000000 0.000000 0.000000 
-0.714476 18.059935 -0.155088 4.580905 12.487673 16.453159 -10.113036 9.442170 -1.696345 -6.349564 4.183930 -9.675847 -15.810313 6.712412 -5.629874 0.597503 11.150346 3.989030 0.000000 0.000000 0.000000 29.003049 21.674722 6.285604 -44.795336 -6.471357 -5.989257 33.208324 -5.122497 -0.266025 0.343279 -2.306514 -3.230914 0.000000 0.000000 0.000000 -16.083710 -12.531951 14.587945 4.769656 -9.287448 -6.457803 20.167629 -9.717706 -10.998574 14.718323 -1.702447 16.300355 -17.989171 -0.955687 -0.044870 0.000000 0.000000 0.000000 9.863287 -4.593713 -21.849069 6.911520 -25.037297 3.791685 18.244136 -28.199840 0.314565 2.669934 -7.912285 0.156672 2.669043 -7.921686 0.000000 0.000000 0.000000 0.000000 0.000000 0.000000 0.000000 -5.276223 -4.800576 -4.291274 73.730435 1.401291 40.156050 18.823925 77.517652 3.907952 6.588366 4.987654 2.008431 7.121938 4.956616 0.000000 0.000000 0.000000 0.000000 0.000000 0.000000 0.000000 
-0.728353 18.057328 -0.137518 4.345768 13.001550 16.372951 -9.991849 9.208019 -1.634990 -5.922801 4.151040 -9.606082 -16.006109 6.610574 -5.692808 0.614393 11.109027 4.021977 0.000000 0.000000 0.000000 28.909231 21.778530 5.951895 -44.357334 -6.647861 -6.036477 33.240019 -5.676180 0.457908 0.422220 -2.141655 -3.789871 0.000000 0.000000 0.000000 -16.056275 -12.736428 14.588585 5.436418 -9.461738 -5.495371 19.130917 -9.133458 -12.385337 14.336296 -1.753023 16.417138 -18.086977 -0.871133 0.948376 0.000000 0.000000 0.000000 9.090284 -2.914626 -22.800596 5.447847 -27.224446 5.079467 19.688777 -31.363552 0.352642 3.527828 -7.703070 0.175926 3.527659 -7.709739 -0.000000 0.000000 0.000000 0.000000 0.000000 0.000000 0.000000 -4.898636 -4.817091 -3.586099 73.987862 0.328547 39.577970 18.406851 78.400023 3.811304 6.000498 4.832687 1.962532 6.538674 4.796065 0.000000 0.000000 0.000000 0.000000 0.000000 0.000000 0.000000 
-0.735383 18.051288 -0.119691 4.093821 13.450558 16.233731 -9.876254 9.047497 -1.548425 -5.543387 4.106915 -9.577183 -16.124038 6.564942 -5.637382 0.631543 10.991790 3.877284 0.000000 0.000000 0.000000 28.655041 21.753842 5.537715 -43.724506 -6.758997 -6.241440 33.226711 -6.279859 1.385568 0.494834 -1.847025 -4.465786 0.000000 0.000000 0.000000 -15.877766 -12.903883 14.545217 6.114124 -9.634216 -4.483095 17.940411 -8.477421 -14.054885 13.685505 -1.745802 16.332888 -17.668349 -0.731076 2.355636 0.000000 0.000000 0.000000 8.543617 -0.923277 -23.657523 3.357710 -29.625109 6.485045 20.811687 -34.927146 0.376013 4.180806 -7.657997 0.187460 4.184230 -7.660760 -0.000000 0.000000 0.000000 0.000000 0.000000 0.000000 0.000000 -4.583722 -4.994786 -2.882097 74.169584 -0.561271 38.956420 17.747270 79.401565 3.604966 5.130261 4.857695 1.860695 5.661136 4.819162 0.000000 0.000000 0.000000 0.000000 0.000000 0.000000 0.000000 
-0.734509 18.043766 -0.104351 3.853230 13.582357 16.141812 -9.862897 9.019611 -1.464243 -5.253967 4.087884 -9.678980 -16.105855 6.606579 -5.515633 0.656900 10.852935 3.544760 0.000000 0.000000 0.000000 28.390382 21.339107 5.212952 -43.152683 -6.741319 -7.232230 33.193991 -7.014730 2.855578 0.540658 -1.321709 -5.150097 0.000000 0.000000 0.000000 -15.630266 -12.980751 14.416477 6.927937 -9.725315 -3.410959 16.458149 -7.699625 -16.026014 12.714751 -1.589369 16.063052 -16.441651 -0.600699 3.699387 0.000000 0.000000 0.000000 8.161259 1.384683 -24.262889 0.415196 -32.056272 7.974508 22.266969 -39.014951 0.406358 4.845073 -7.800579 0.202235 4.853891 -7.798684 -0.000000 0.000000 0.000000 0.000000 0.000000 0.000000 0.000000 -4.329172 -5.409077 -2.198011 74.456528 -1.391828 38.261274 16.744513 80.378941 3.367032 4.332495 5.000333 1.740975 4.844501 4.966031 0.000000 0.000000 0.000000 0.000000 0.000000 0.000000 0.000000 
-0.727619 18.034822 -0.090604 3.612186 13.586422 16.132710 -9.894468 9.047093 -1.438451 -5.054641 4.065654 -9.889641 -15.950895 6.718711 -5.284487 0.689711 10.659406 3.054652 0.000000 0.000000 0.000000 28.075516 20.560931 4.907363 -42.570675 -6.637167 -8.878558 33.146823 -7.874583 4.751733 0.562620 -0.664184 -5.798319 0.000000 0.000000 0.000000 -15.259493 -12.897948 14.325902 8.015045 -9.662517 -2.561819 14.447528 -6.806111 -18.323531 11.256560 -1.213216 15.716245 -14.104192 -0.486033 5.207522 0.000000 0.000000 0.000000 8.031618 4.060263 -24.560005 -4.022978 -34.740247 9.709847 24.022163 -43.699470 0.478819 5.750882 -7.865107 0.238199 5.762799 -7.859888 -0.000000 0.000000 0.000000 0.000000 0.000000 0.000000 0.000000 -4.286916 -6.261252 -1.651137 75.029294 -2.318643 37.357930 15.203116 81.373855 3.143945 3.610592 5.366093 1.627931 4.102033 5.343107 0.000000 0.000000 0.000000 0.000000 0.000000 0.000000 0.000000 
-0.717489 18.024590 -0.075925 3.402701 13.571830 16.227364 -9.944602 9.108901 -1.462421 -4.949485 4.005422 -10.189584 -15.710767 6.858089 -4.974846 0.723298 10.418810 2.488584 0.000000 0.000000 0.000000 27.791553 19.407645 4.713926 -42.062376 -6.465525 -11.147987 33.066443 -8.842332 6.960416 0.566988 0.034408 -6.377963 0.000000 0.000000 0.000000 -14.814218 -12.570700 14.257765 8.857036 -9.398864 -2.318966 12.504843 -6.088199 -20.181089 9.757152 -0.741270 15.453845 -11.273467 -0.418057 6.726508 0.000000 0.000000 0.000000 8.090489 6.412888 -24.401304 -8.956353 -36.986988 11.393671 26.099928 -48.397443 0.571346 6.626387 -7.676350 0.284533 6.638040 -7.670697 -0.000000 0.000000 0.000000 0.000000 0.000000 0.000000 0.000000 -4.415452 -7.441489 -1.242320 75.612442 -3.145171 36.268769 13.264310 82.482910 2.985873 3.115775 5.621743 1.547020 3.588784 5.610941 0.000000 0.000000 0.000000 0.000000 0.000000 0.000000 0.000000 
-0.698597 18.013349 -0.061954 3.183131 13.560320 16.306204 -10.029420 9.215424 -1.478343 -4.895724 3.921185 -10.542583 -15.342590 7.021851 -4.572785 0.753672 10.103928 1.801343 0.000000 0.000000 0.000000 27.337534 17.960035 4.491642 -41.306563 -6.159103 -13.702301 32.884560 -9.802023 9.301733 0.548389 0.738946 -6.870187 0.000000 0.000000 0.000000 -14.142470 -12.031356 14.203751 9.438810 -8.972822 -2.202150 10.489469 -5.389404 -21.985253 8.224820 -0.212266 15.196791 -8.067195 -0.415763 8.423969 0.000000 0.000000 0.000000 8.332659 8.546204 -23.823816 -14.574860 -38.774955 13.007402 28.947396 -53.451482 0.686636 7.264079 -7.504574 0.342702 7.271989 -7.502889 -0.000000 0.000000 0.000000 0.000000 0.000000 0.000000 0.000000 -4.778238 -8.863318 -1.173350 76.305272 -4.194960 35.504259 11.122532 83.750276 2.846592 2.670482 5.587982 1.476174 3.128025 5.583416 0.000000 0.000000 0.000000 0.000000 0.000000 0.000000 0.000000 
-0.676756 18.001365 -0.046100 2.975887 13.613481 16.338285 -10.100807 9.378598 -1.455775 -4.894903 3.781530 -10.934323 -14.902980 7.196260 -4.058949 0.774045 9.730451 1.065241 0.000000 0.000000 0.000000 26.832555 16.475502 4.284272 -40.417880 -5.778074 -16.126038 32.577565 -10.676768 11.520172 0.524360 1.377511 -7.317112 0.000000 0.000000 0.000000 -13.442008 -11.410624 14.107461 9.687476 -8.502218 -1.967645 8.791609 -4.768290 -23.549274 7.067035 0.217033 15.044038 -5.341476 -0.472425 9.763412 0.000000 0.000000 0.000000 8.487716 10.116862 -23.013189 -20.091409 -39.948080 14.410315 32.196933 -58.499307 0.833419 7.939984 -7.397517 0.416773 7.944580 -7.401865 -0.000000 0.000000 0.000000 0.000000 0.000000 0.000000 0.000000 -5.157013 -10.200946 -1.385342 76.877214 -5.553933 35.111839 8.517753 85.352700 2.839811 2.375717 5.226004 1.476536 2.849750 5.217985 0.000000 0.000000 0.000000 0.000000 0.000000 0.000000 0.000000 
